<?xml version="1.0" standalone="no"?>
<!DOCTYPE svg PUBLIC "-//W3C//DTD SVG 20010904//EN"
 "http://www.w3.org/TR/2001/REC-SVG-20010904/DTD/svg10.dtd">
<svg version="1.0" xmlns="http://www.w3.org/2000/svg"
 width="502.000000pt" height="483.000000pt" viewBox="0 0 502.000000 483.000000"
 preserveAspectRatio="xMidYMid meet">

<g transform="translate(0.000000,483.000000) scale(0.100000,-0.100000)"
fill="#000000" stroke="none">
<path d="M2408 4223 c-240 -234 -417 -536 -464 -793 -20 -112 -17 -298 6 -403
23 -102 86 -267 135 -349 83 -140 204 -259 356 -349 82 -49 89 -48 170 28 149
139 384 502 429 663 101 356 -54 770 -445 1188 -100 107 -92 107 -187 15z"/>
<path d="M4605 3084 c-203 -13 -484 -60 -640 -106 -564 -165 -982 -483 -1234
-938 -57 -102 -159 -332 -198 -445 -32 -94 -89 -313 -104 -405 -17 -96 -17
-404 0 -490 16 -86 52 -212 64 -227 13 -18 193 -17 300 2 262 46 846 300 1061
462 171 128 360 335 488 533 258 399 417 941 421 1438 l2 177 -55 1 c-30 0
-77 -1 -105 -2z"/>
<path d="M463 2914 c-13 -33 6 -409 27 -534 87 -530 296 -867 648 -1044 82
-42 371 -116 612 -158 110 -19 375 -18 393 2 38 40 77 262 77 430 -1 248 -79
490 -238 730 -247 372 -748 590 -1360 590 -131 0 -153 -2 -159 -16z"/>
</g>
</svg>
